<?xml version="1.0" encoding="utf-8"?>
<!-- Generator: Adobe Illustrator 15.0.0, SVG Export Plug-In  -->
<!DOCTYPE svg PUBLIC "-//W3C//DTD SVG 1.0//EN" "http://www.w3.org/TR/2001/REC-SVG-20010904/DTD/svg10.dtd" [
	<!ENTITY ns_flows "http://ns.adobe.com/Flows/1.0/">
]>
<svg version="1.0"
	 xmlns="http://www.w3.org/2000/svg" xmlns:xlink="http://www.w3.org/1999/xlink" xmlns:a="http://ns.adobe.com/AdobeSVGViewerExtensions/3.0/"
	 x="0px" y="0px" width="1417px" height="1417px" viewBox="-17.62 -18.813 1417 1417"
	 enable-background="new -17.62 -18.813 1417 1417" xml:space="preserve">
<defs>
</defs>
<linearGradient id="SVGID_1_" gradientUnits="userSpaceOnUse" x1="579.8711" y1="-155.3276" x2="3484.9651" y2="-155.3276" gradientTransform="matrix(0 1 1 0 846.3672 -846.3672)">
	<stop  offset="0" style="stop-color:#FFFEF5"/>
	<stop  offset="0.27" style="stop-color:#9BD6F1"/>
	<stop  offset="1" style="stop-color:#0986B9"/>
</linearGradient>
<path fill="url(#SVGID_1_)" d="M241.753,0h898.571c133.519,0,241.755,108.235,241.755,241.752v898.574
	c0,133.518-108.236,241.752-241.755,241.752H241.753C108.231,1382.078,0,1273.844,0,1140.326V241.752C0,108.235,108.231,0,241.753,0
	z"/>
<path fill="#8BB9E4" d="M669.399,318.816c308.677,0,558.914,233.364,558.914,521.23c0,287.874-250.236,521.248-558.914,521.248
	c-308.686,0-558.922-233.374-558.922-521.248C110.477,552.18,360.713,318.816,669.399,318.816z"/>
<path fill="#8BB9E4" d="M362.335,85.125c177.99,0,322.276,134.566,322.276,300.548c0,165.983-144.286,300.548-322.276,300.548
	c-177.985,0-322.264-134.565-322.264-300.548C40.071,219.692,184.35,85.125,362.335,85.125z"/>
<path fill="#8BB9E4" d="M1015.457,85.125c177.986,0,322.269,134.566,322.269,300.548c0,165.983-144.282,300.548-322.269,300.548
	c-177.985,0-322.271-134.565-322.271-300.548C693.187,219.692,837.472,85.125,1015.457,85.125z"/>
<path fill="#649ED5" d="M664.521,310.007c298.101,0,539.762,225.374,539.762,503.376c0,278.01-241.661,503.383-539.762,503.383
	c-298.106,0-539.769-225.373-539.769-503.383C124.753,535.381,366.415,310.007,664.521,310.007z"/>
<path fill="#649ED5" d="M367.985,84.34c171.892,0,311.229,129.946,311.229,290.239c0,160.309-139.338,290.248-311.229,290.248
	C196.1,664.827,56.76,534.889,56.76,374.58C56.76,214.287,196.1,84.34,367.985,84.34z"/>
<path fill="#649ED5" d="M998.717,84.34c171.896,0,311.234,129.946,311.234,290.239c0,160.309-139.339,290.248-311.234,290.248
	c-171.882,0-311.221-129.938-311.221-290.248C687.496,214.287,826.835,84.34,998.717,84.34z"/>
<path fill="#224089" d="M647.255,307.381c287.283,0,520.17,217.183,520.17,485.1c0,267.908-232.887,485.094-520.17,485.094
	c-287.276,0-520.161-217.186-520.161-485.094C127.094,524.564,359.979,307.381,647.255,307.381z"/>
<path fill="#224089" d="M361.49,89.903c165.646,0,299.929,125.226,299.929,279.701c0,154.484-134.283,279.701-299.929,279.701
	c-165.641,0-299.924-125.217-299.924-279.701C61.565,215.128,195.849,89.903,361.49,89.903z"/>
<path fill="#224089" d="M969.329,89.903c165.64,0,299.924,125.226,299.924,279.701c0,154.484-134.284,279.701-299.924,279.701
	c-165.647,0-299.93-125.217-299.93-279.701C669.399,215.128,803.682,89.903,969.329,89.903z"/>
<linearGradient id="SVGID_2_" gradientUnits="userSpaceOnUse" x1="516.8521" y1="51.0439" x2="2432.3955" y2="51.0439" gradientTransform="matrix(-0.0488 0.9988 0.9988 0.0488 655.2349 -623.9932)">
	<stop  offset="0" style="stop-color:#DCEBC0"/>
	<stop  offset="0.23" style="stop-color:#99CB55"/>
	<stop  offset="0.7" style="stop-color:#255D2E"/>
	<stop  offset="1" style="stop-color:#000000"/>
</linearGradient>
<path fill="url(#SVGID_2_)" d="M638.275,313.134c270.237,0,489.309,204.304,489.309,456.334
	c0,252.014-219.071,456.315-489.309,456.315c-270.242,0-489.314-204.302-489.314-456.315
	C148.961,517.438,368.033,313.134,638.275,313.134z"/>
<linearGradient id="SVGID_3_" gradientUnits="userSpaceOnUse" x1="2198.96" y1="-3307.4307" x2="3342.9272" y2="-3307.4307" gradientTransform="matrix(0.577 0.8167 0.8167 -0.577 1738.9739 -3357.6421)">
	<stop  offset="0" style="stop-color:#DCEBC0"/>
	<stop  offset="0.23" style="stop-color:#99CB55"/>
	<stop  offset="0.7" style="stop-color:#255D2E"/>
	<stop  offset="1" style="stop-color:#000000"/>
</linearGradient>
<path fill="url(#SVGID_3_)" d="M725.662,403.156c-66.307-36.164-158.733-38.171-234.59-20.093
	c-75.849,18.078-135.12,56.264-179.831,97.958c-44.713,41.694-74.854,86.903-91.43,140.651
	c-16.574,53.749-19.582,116.036-3.507,162.254c16.074,46.216,51.232,76.355,78.36,73.341c27.124-3.016,46.209-39.187,79.365-80.373
	c33.155-41.193,80.376-87.411,138.144-116.543c57.772-29.14,126.087-41.187,187.87-51.741
	c61.79-10.546,117.038-19.585,124.581-59.279C832.155,509.653,791.974,439.327,725.662,403.156z"/>
<linearGradient id="SVGID_4_" gradientUnits="userSpaceOnUse" x1="473.2266" y1="-207.0684" x2="1577.7548" y2="-207.0684" gradientTransform="matrix(-0.0488 0.9988 0.9988 0.0488 623.9561 -594.208)">
	<stop  offset="0" style="stop-color:#DCEBC0"/>
	<stop  offset="0.23" style="stop-color:#99CB55"/>
	<stop  offset="0.7" style="stop-color:#255D2E"/>
	<stop  offset="1" style="stop-color:#000000"/>
</linearGradient>
<path fill="url(#SVGID_4_)" d="M369.454,108.552c155.83,0,282.141,117.797,282.141,263.116
	c0,145.318-126.312,263.123-282.141,263.123c-155.816,0-282.129-117.805-282.129-263.123
	C87.324,226.35,213.637,108.552,369.454,108.552z"/>
<linearGradient id="SVGID_5_" gradientUnits="userSpaceOnUse" x1="519.1221" y1="293.7451" x2="1623.6503" y2="293.7451" gradientTransform="matrix(-0.0488 0.9988 0.9988 0.0488 697.7563 -664.4873)">
	<stop  offset="0" style="stop-color:#DCEBC0"/>
	<stop  offset="0.23" style="stop-color:#99CB55"/>
	<stop  offset="0.7" style="stop-color:#255D2E"/>
	<stop  offset="1" style="stop-color:#000000"/>
</linearGradient>
<path fill="url(#SVGID_5_)" d="M941.235,108.552c155.825,0,282.138,117.797,282.138,263.116
	c0,145.318-126.313,263.123-282.138,263.123c-155.82,0-282.133-117.805-282.133-263.123
	C659.103,226.35,785.415,108.552,941.235,108.552z"/>
<path d="M336.993,878.32c43.246,50.574,86.5,101.157,146.612,136.344c60.109,35.186,137.077,54.979,215.879,41.781
	c78.805-13.189,159.438-59.383,211.125-101.895c51.673-42.511,74.4-81.365,97.125-120.217
	c-50.578,31.52-101.164,63.041-170.797,88.696c-69.643,25.664-158.349,45.448-226.15,48.02
	c-67.807,2.571-114.726-12.095-156.877-30.426C411.759,922.301,374.377,900.311,336.993,878.32z"/>
<linearGradient id="SVGID_6_" gradientUnits="userSpaceOnUse" x1="1932.4912" y1="-2370.4785" x2="2461.7864" y2="-2370.4785" gradientTransform="matrix(0.4238 0.9058 0.9058 -0.4238 1623.7681 -2552.5198)">
	<stop  offset="0.04" style="stop-color:#FFFFFF"/>
	<stop  offset="0.72" style="stop-color:#A3ABB4"/>
	<stop  offset="1" style="stop-color:#000000"/>
</linearGradient>
<path fill="url(#SVGID_6_)" d="M368.489,160.8c116.87,0,211.604,88.348,211.604,197.328c0,108.99-94.735,197.346-211.604,197.346
	c-116.864,0-211.604-88.356-211.604-197.346C156.885,249.148,251.625,160.8,368.489,160.8z"/>
<linearGradient id="SVGID_7_" gradientUnits="userSpaceOnUse" x1="2216.4717" y1="-1914.5186" x2="2745.7734" y2="-1914.5186" gradientTransform="matrix(0.4238 0.9058 0.9058 -0.4238 1664.4722 -2616.5042)">
	<stop  offset="0.04" style="stop-color:#FFFFFF"/>
	<stop  offset="0.72" style="stop-color:#A3ABB4"/>
	<stop  offset="1" style="stop-color:#000000"/>
</linearGradient>
<path fill="url(#SVGID_7_)" d="M942.533,160.8c116.872,0,211.604,88.348,211.604,197.328c0,108.99-94.732,197.346-211.604,197.346
	c-116.861,0-211.605-88.356-211.605-197.346C730.928,249.148,825.672,160.8,942.533,160.8z"/>
<path d="M372.545,281.986c42.507,0,76.968,34.45,76.968,76.96c0,42.512-34.461,76.968-76.968,76.968
	c-42.511,0-76.973-34.456-76.973-76.968C295.572,316.436,330.034,281.986,372.545,281.986z"/>
<path d="M955.806,281.986c42.508,0,76.971,34.45,76.971,76.96c0,42.512-34.463,76.968-76.971,76.968s-76.973-34.456-76.973-76.968
	C878.833,316.436,913.298,281.986,955.806,281.986z"/>
</svg>
